<?xml version="1.0" standalone="no"?>
<!DOCTYPE svg PUBLIC "-//W3C//DTD SVG 20010904//EN"
 "http://www.w3.org/TR/2001/REC-SVG-20010904/DTD/svg10.dtd">
<svg version="1.0" xmlns="http://www.w3.org/2000/svg"
 width="1186.000000pt" height="980.000000pt" viewBox="0 0 1186.000000 980.000000"
 preserveAspectRatio="xMidYMid meet">

<g transform="translate(0.000000,980.000000) scale(0.100000,-0.100000)"
fill="#FFFFFF" stroke="none">
<path d="M6005 9768 c-49 -16 -292 -86 -540 -155 -698 -194 -985 -292 -1290
-443 -151 -74 -357 -199 -381 -231 -6 -8 -36 -88 -68 -179 -129 -370 -262
-678 -408 -948 -85 -157 -122 -197 -206 -222 -293 -87 -484 -141 -712 -201
-146 -39 -353 -95 -460 -124 -215 -60 -1075 -345 -1265 -420 -233 -92 -438
-198 -592 -308 l-73 -52 0 -120 c0 -322 46 -780 170 -1690 97 -717 135 -1075
155 -1465 6 -123 9 -165 20 -305 3 -38 7 -113 10 -165 33 -597 102 -1271 170
-1670 32 -186 85 -444 95 -460 4 -7 95 -38 201 -70 262 -78 964 -275 1069
-299 181 -42 244 -68 337 -137 48 -37 99 -70 112 -75 50 -20 203 -22 320 -5
106 16 174 34 566 151 83 24 348 92 590 151 1311 316 1944 488 2602 709 l332
111 53 -33 c139 -90 307 -157 481 -195 150 -32 478 -32 658 0 245 44 415 100
644 212 238 116 409 240 567 412 57 61 111 109 138 123 25 12 119 46 210 75
495 156 1350 524 1657 711 226 138 400 315 590 602 l85 127 4 88 c16 414 10
1415 -11 1782 -12 222 -57 739 -96 1105 -52 496 -132 1210 -155 1390 -60 467
-135 749 -240 907 -75 112 -140 149 -306 173 -179 26 -302 72 -608 225 -622
311 -884 400 -1304 444 -186 20 -274 20 -464 1 -262 -26 -402 -59 -747 -175
-115 -38 -210 -70 -211 -70 -7 0 -17 48 -25 119 -5 46 -14 91 -19 101 -6 11
-48 31 -107 50 -242 80 -696 246 -811 296 -208 91 -330 135 -449 160 -142 30
-177 29 -288 -8z m2766 -1300 l102 -21 -26 -23 c-32 -28 -91 -37 -195 -33 -65
3 -85 9 -120 32 -44 29 -54 52 -24 60 45 12 171 5 263 -15z m-1854 -308 c7
-14 12 -49 11 -78 l-3 -54 -140 -54 c-77 -29 -187 -70 -244 -89 -90 -32 -105
-34 -120 -22 -9 8 -24 17 -33 20 -22 8 -23 26 -3 33 8 4 15 11 15 18 0 11 -45
36 -66 36 -14 0 -38 -92 -31 -119 5 -22 -25 -31 -107 -31 -51 0 -146 25 -146
38 1 37 155 130 276 167 85 27 110 31 82 14 -17 -10 -25 -49 -12 -62 4 -3 20
8 35 25 21 21 26 34 19 42 -7 9 10 18 63 34 40 12 82 22 93 22 20 0 153 48
209 75 44 22 87 15 102 -15z m3266 -607 c8 -49 23 -108 32 -133 18 -48 29
-192 18 -249 -5 -30 -13 -37 -101 -78 -52 -25 -124 -53 -161 -64 -66 -18 -66
-18 -82 3 -11 14 -21 18 -30 12 -8 -4 -32 -11 -54 -14 -36 -5 -40 -8 -37 -32
2 -23 -3 -30 -35 -43 -21 -9 -82 -25 -137 -36 -54 -10 -101 -21 -105 -24 -4
-2 -39 -9 -77 -15 -38 -6 -78 -13 -90 -16 -18 -5 -22 0 -27 28 -4 18 -16 65
-26 103 -11 39 -21 82 -21 96 0 15 -6 42 -14 60 -7 19 -16 50 -20 70 l-6 35
237 116 c285 139 441 201 633 252 90 23 85 26 103 -71z m-2499 -2270 c-14 -10
-20 -11 -23 -2 -2 7 5 18 15 26 14 10 20 11 23 2 2 -7 -5 -18 -15 -26z m761
-12 c-30 -29 -66 -31 -76 -3 -8 21 -6 22 44 22 51 0 51 0 32 -19z m408 -48
c12 -7 8 -20 -8 -27 -22 -8 -65 11 -65 30 0 12 6 14 33 9 17 -4 35 -9 40 -12z
m-275 -205 c7 -7 12 -25 12 -41 0 -26 -3 -28 -32 -25 -38 4 -50 35 -23 62 20
19 27 20 43 4z m-1778 -66 c0 -30 -35 -63 -77 -74 -38 -10 -28 26 19 66 50 43
58 44 58 8z m2495 -37 c46 -54 47 -57 34 -88 -16 -41 -38 -67 -57 -67 -9 0
-23 -7 -33 -16 -11 -10 -25 -13 -38 -9 -30 9 -23 61 12 100 24 25 27 36 23 67
-5 31 0 68 9 68 1 0 24 -25 50 -55z m-81 -13 c13 -46 -2 -59 -45 -37 -46 24
-45 22 -19 50 31 33 52 28 64 -13z m-1750 -140 c-1 -6 -2 -42 -2 -79 -2 -47
-5 -64 -13 -56 -12 12 -31 132 -23 145 8 13 39 5 38 -10z m1574 -64 c3 -37 3
-38 -32 -38 -33 0 -36 3 -36 28 0 34 18 54 45 50 15 -2 21 -12 23 -40z m-1978
1 c0 -6 -5 -20 -11 -31 -9 -17 -13 -18 -20 -7 -16 25 -10 49 11 49 11 0 20 -5
20 -11z m-404 -20 c40 -24 54 -47 54 -86 -1 -30 -30 -73 -51 -73 -7 0 -30 8
-51 18 -36 16 -38 19 -32 52 3 19 12 39 20 43 8 4 14 21 14 37 0 36 3 36 46 9z
m654 -14 c0 -8 -7 -15 -16 -15 -14 0 -14 3 -4 15 7 8 14 15 16 15 2 0 4 -7 4
-15z m2047 -84 c13 -15 22 -37 20 -51 -2 -21 -7 -25 -32 -25 -23 0 -35 -8 -54
-38 -22 -34 -29 -38 -60 -35 -31 3 -36 7 -39 31 -3 22 -12 32 -37 43 -19 8
-43 14 -54 14 -10 0 -21 8 -25 18 -3 9 -11 25 -18 34 -7 9 -9 21 -4 25 11 11
150 21 221 16 49 -4 64 -10 82 -32z m-441 -40 c5 -5 27 -11 49 -13 33 -2 41
-7 43 -27 2 -13 -1 -28 -7 -34 -24 -24 -12 -36 19 -21 34 18 47 12 61 -24 8
-21 6 -30 -16 -52 -14 -14 -25 -34 -25 -44 0 -16 -2 -16 -30 1 -20 11 -30 25
-29 38 2 37 -1 39 -26 15 -14 -13 -27 -21 -30 -19 -10 11 -85 130 -85 136 0
12 43 53 55 53 6 0 15 -4 21 -9z m-2447 -57 c2 -2 -1 -10 -8 -18 -9 -11 -9
-23 1 -55 12 -37 16 -41 45 -41 35 0 46 -22 19 -37 -7 -4 -19 -19 -26 -32 -12
-24 -12 -24 -29 -4 -9 11 -26 26 -38 32 -20 10 -24 8 -37 -24 -17 -40 -23 -42
-42 -17 -21 27 -17 53 21 136 34 72 37 76 63 70 15 -4 29 -8 31 -10z m366 -94
c0 -43 -1 -45 -32 -48 -31 -3 -33 -1 -33 29 0 36 26 71 49 67 12 -2 16 -15 16
-48z m645 31 c14 -28 13 -39 -9 -51 -38 -20 -62 9 -45 54 8 22 41 20 54 -3z
m1870 -41 c34 -34 23 -67 -25 -72 -29 -3 -30 -2 -26 37 5 62 16 70 51 35z
m-2688 -82 c13 -21 9 -28 -16 -28 -13 0 -36 -10 -51 -22 -26 -20 -27 -25 -21
-75 3 -29 2 -53 -3 -53 -4 0 -20 -10 -35 -21 -25 -20 -26 -23 -11 -39 22 -24
6 -32 -37 -18 -43 13 -68 6 -68 -19 0 -41 -28 -62 -87 -65 -50 -3 -59 -6 -72
-30 -14 -24 -14 -28 4 -48 13 -14 15 -24 8 -31 -13 -13 -39 -1 -67 29 -15 18
-16 26 -7 54 10 29 24 39 110 80 115 56 131 78 112 151 -9 36 -8 44 6 55 9 6
26 13 37 13 21 1 27 1 59 -8 12 -4 17 1 17 17 0 13 11 38 25 56 23 30 28 32
57 23 17 -5 35 -14 40 -21z m538 -114 c0 -17 -32 -34 -63 -34 -19 0 -27 7 -31
27 -5 16 -3 29 4 33 18 11 90 -10 90 -26z m2464 -147 c18 -112 19 -177 2 -132
-5 11 -10 26 -12 33 -2 6 -19 12 -39 12 -29 0 -39 6 -54 30 -16 27 -17 35 -5
82 16 59 38 88 69 88 20 0 23 -9 39 -113z m-2844 61 c0 -23 -14 -35 -47 -41
-40 -8 -42 4 -7 32 30 24 54 27 54 9z m404 -17 c-3 -9 -8 -27 -11 -41 l-4 -25
17 23 c9 12 27 22 40 22 24 0 24 0 9 -37 -20 -47 -21 -48 -47 -36 -16 7 -30 4
-57 -9 -19 -10 -50 -18 -68 -18 -19 0 -49 -6 -68 -14 -30 -13 -35 -13 -49 3
-20 22 -21 61 -2 61 9 0 16 12 18 27 2 22 9 28 31 30 16 1 50 9 75 17 87 28
129 27 116 -3z m-260 -363 c-2 -71 -30 -140 -64 -158 -18 -10 -20 -8 -20 17 0
15 7 67 16 115 12 64 20 88 32 91 32 9 37 0 36 -65z m-483 -45 c1 -16 1 -33 0
-39 -1 -6 15 -14 36 -17 30 -5 52 1 109 28 40 19 78 35 84 35 8 0 10 -15 5
-50 -5 -37 -15 -58 -37 -81 -28 -28 -29 -31 -14 -48 21 -23 21 -87 0 -95 -25
-10 -82 -7 -89 5 -4 6 1 16 10 23 37 27 -14 88 -54 66 -11 -5 -28 -10 -39 -10
-10 0 -31 -13 -45 -30 -27 -30 -60 -39 -73 -19 -3 6 -1 16 5 22 6 6 11 23 11
38 0 23 5 28 27 31 20 2 30 12 41 38 10 27 11 32 1 23 -18 -18 -56 -16 -67 4
-9 14 -14 15 -41 3 -39 -16 -56 -3 -47 35 10 38 61 65 124 65 50 0 52 -1 53
-27z m2869 -38 c0 -24 -6 -37 -19 -45 -30 -16 -61 -12 -63 8 -5 55 8 72 55 72
24 0 27 -3 27 -35z m150 -12 c14 -18 17 -30 10 -37 -12 -12 -50 25 -50 49 0
23 16 18 40 -12z m174 -29 c18 -7 21 -36 6 -64 -7 -13 -7 -21 0 -25 14 -9 12
-42 -2 -48 -10 -3 -10 -9 0 -26 14 -25 16 -51 3 -51 -14 0 -41 41 -41 62 0 9
-6 23 -13 30 -7 7 -18 33 -26 56 -11 40 -11 45 6 58 20 15 42 17 67 8z m-316
-126 c19 -19 14 -56 -8 -68 -11 -6 -20 -17 -20 -25 0 -8 -9 -15 -20 -15 -22 0
-26 24 -11 62 5 13 12 31 15 41 6 20 27 22 44 5z m-3119 -82 c7 -30 23 -55 51
-80 40 -36 45 -56 13 -56 -26 0 -53 -31 -53 -61 0 -28 1 -28 57 -26 l57 2 7
-39 c6 -40 13 -48 93 -109 40 -31 49 -67 16 -67 -24 0 -25 -11 -4 -52 13 -26
14 -36 4 -51 -8 -14 -9 -22 -1 -30 18 -18 13 -47 -7 -47 -28 0 -42 -21 -42
-63 0 -39 -1 -39 -31 -33 -29 6 -31 4 -25 -18 8 -34 -14 -53 -70 -62 -26 -4
-55 -15 -65 -25 -26 -26 -41 -24 -76 14 -28 30 -31 41 -47 167 -16 138 -21
426 -9 553 6 65 7 68 34 74 16 3 29 11 29 17 0 17 21 36 41 36 11 0 20 -14 28
-44z m431 -76 c0 -27 -3 -30 -29 -30 -40 0 -49 19 -21 42 33 27 50 23 50 -12z
m2742 -34 c7 -34 5 -40 -28 -72 -24 -22 -47 -34 -65 -34 -32 0 -47 16 -30 33
6 6 11 23 11 39 0 23 5 28 36 34 24 4 38 13 42 26 7 29 26 16 34 -26z m-2897
-40 c15 -75 -14 -117 -53 -78 -12 12 -26 22 -31 22 -13 0 -1 52 17 73 8 9 25
17 38 17 18 0 24 -7 29 -34z m3103 -19 c2 -9 -6 -25 -18 -37 -21 -21 -23 -21
-41 -4 -26 23 -26 58 0 49 11 -3 22 -1 26 5 9 15 29 7 33 -13z m-352 -32 c19
-46 18 -104 -1 -112 -37 -14 -75 64 -61 122 10 38 44 33 62 -10z m-2242 -111
c9 -3 16 -15 16 -26 0 -14 -5 -18 -16 -14 -9 3 -20 6 -25 6 -5 0 -9 9 -9 20 0
21 8 24 34 14z m-410 -10 c25 -10 0 -34 -35 -34 -33 0 -38 14 -11 29 20 12 25
13 46 5z m262 -126 c31 -15 33 -42 2 -32 -30 9 -28 6 -32 45 -2 19 -1 26 1 16
3 -10 15 -23 29 -29z m239 -19 c9 -73 3 -79 -74 -79 -52 0 -53 0 -47 26 10 39
36 75 71 95 16 11 33 19 37 19 3 0 9 -28 13 -61z m-201 -41 c1 -1 14 -20 29
-40 27 -37 27 -39 12 -71 -14 -31 -80 -75 -92 -63 -3 3 -8 45 -11 94 l-5 88
32 -2 c18 -1 33 -4 35 -6z m2363 -101 c10 -17 152 -127 164 -127 5 0 12 15 17
33 12 47 44 44 49 -4 4 -46 -15 -64 -61 -56 -41 7 -72 -12 -63 -37 5 -12 13
-15 27 -11 14 4 20 2 20 -8 0 -8 7 -20 15 -27 22 -19 19 -40 -21 -119 -31 -62
-39 -71 -62 -71 -22 0 -32 9 -51 43 -26 48 -24 104 4 127 20 17 2 40 -31 40
-19 0 -24 5 -24 24 0 14 -5 28 -10 31 -14 8 -60 -21 -60 -38 -1 -35 -17 -39
-59 -16 -50 29 -52 48 -11 108 17 24 30 47 30 51 0 4 13 10 30 13 21 5 31 14
36 32 7 28 47 36 61 12z m-2147 -7 c0 -5 -6 -10 -13 -10 -8 0 -24 -11 -37 -25
-26 -27 -60 -33 -60 -11 0 22 49 56 81 56 16 0 29 -4 29 -10z m-488 -32 c22
-10 27 -21 32 -68 3 -30 8 -76 12 -101 l6 -46 -45 -12 c-59 -14 -67 -14 -67 3
0 7 -13 30 -30 51 -34 42 -37 57 -15 75 9 7 15 29 15 51 0 54 36 73 92 47z
m370 -45 c22 -20 23 -39 3 -47 -8 -3 -15 -15 -15 -26 0 -11 -6 -31 -14 -43 -8
-12 -17 -42 -21 -66 -4 -24 -17 -53 -28 -64 l-21 -21 -15 47 c-13 44 -13 51 1
80 9 18 18 41 20 52 2 12 12 21 27 23 20 3 22 8 17 36 -9 48 11 61 46 29z
m-747 -242 c41 -43 59 -50 72 -27 4 7 18 18 30 25 24 12 93 15 93 4 -1 -21
-51 -61 -84 -67 -32 -6 -36 -9 -25 -22 7 -9 28 -23 47 -33 31 -16 34 -22 37
-67 3 -52 -8 -84 -28 -84 -16 0 -67 -52 -67 -68 0 -16 -32 -15 -52 1 -17 13
-78 175 -103 275 -13 53 -14 69 -3 92 15 34 25 30 83 -29z m955 9 c0 -10 -5
-22 -10 -25 -13 -8 -24 20 -16 41 8 20 26 9 26 -16z m-182 -62 c2 -28 -1 -38
-12 -38 -23 0 -46 29 -46 56 0 22 4 25 28 22 23 -3 27 -8 30 -40z m228 -53
c32 -48 -7 -81 -50 -42 -32 30 -33 45 -3 57 33 13 35 12 53 -15z m-268 -196
c-3 -8 -7 -3 -11 10 -4 17 -3 21 5 13 5 -5 8 -16 6 -23z m392 -30 c27 -39 39
-66 35 -77 -6 -15 -8 -15 -21 2 -12 17 -17 18 -39 6 -31 -16 -71 -1 -84 32 -6
17 0 29 28 59 20 21 37 38 38 39 1 0 21 -27 43 -61z m1698 -12 c3 -23 0 -27
-22 -27 -26 0 -32 13 -20 45 10 25 39 13 42 -18z m-302 -25 c-8 -16 -12 -39
-9 -50 4 -17 1 -22 -15 -22 -11 0 -25 7 -32 15 -9 11 -6 21 17 50 35 44 60 48
39 7z m-1542 -1 c3 -4 0 -36 -6 -70 -11 -56 -14 -61 -38 -61 -36 0 -65 23 -96
76 -29 50 -27 64 8 40 31 -22 58 -21 58 4 0 16 7 20 34 20 19 0 37 -4 40 -9z
m-466 -74 c4 -75 -6 -87 -69 -84 -48 2 -49 2 -49 35 0 47 55 114 90 110 23 -3
25 -7 28 -61z m1899 -54 c10 -21 10 -28 0 -35 -17 -11 -35 -10 -58 2 -25 14
-24 34 4 48 34 16 41 14 54 -15z m301 -10 c-4 -33 -29 -41 -52 -18 -27 28 -20
45 20 45 33 0 35 -2 32 -27z m-1657 -23 c12 0 12 -67 0 -74 -15 -9 -40 4 -46
25 -9 28 4 62 22 55 8 -3 19 -6 24 -6z m349 -81 c15 -27 12 -39 -10 -39 -11 0
-20 6 -20 13 0 6 -3 22 -6 35 -5 18 -3 21 10 16 9 -4 21 -15 26 -25z m720 -18
c0 -5 -15 -31 -33 -57 -25 -36 -41 -50 -62 -52 -34 -4 -42 4 -47 48 -3 33 -2
34 52 51 64 20 90 23 90 10z m-1890 -46 c0 -7 3 -22 6 -32 3 -11 -4 -7 -20 11
-13 17 -23 33 -20 37 7 12 34 -1 34 -16z m809 -23 c50 -43 51 -63 6 -117 l-25
-30 -20 25 c-28 33 -100 138 -100 144 0 3 17 7 38 9 20 2 42 4 47 5 6 1 30
-15 54 -36z m444 -9 c9 -27 17 -58 17 -71 0 -21 -3 -22 -37 -16 -98 17 -121
62 -55 107 20 14 42 26 48 26 5 1 18 -20 27 -46z m-172 -15 c34 -35 34 -62 1
-66 -12 -2 -28 -12 -36 -23 -14 -21 -46 -17 -46 7 0 7 -7 17 -16 22 -14 8 -12
13 15 41 17 17 31 36 31 41 0 19 22 10 51 -22z m935 -72 c9 -36 0 -43 -58 -49
-29 -3 -63 -8 -75 -12 -32 -10 -31 22 1 35 13 5 27 14 31 19 3 6 17 8 31 5 17
-4 26 -1 30 10 9 24 33 19 40 -8z m-1073 -59 l-1 -67 44 0 c44 0 53 -7 34 -26
-8 -8 -6 -15 5 -24 16 -14 20 -57 6 -79 -12 -18 -42 -7 -77 30 -28 30 -28 31
-10 45 19 13 19 14 1 34 -10 11 -24 20 -32 20 -7 0 -13 9 -13 20 0 11 -7 20
-15 20 -21 0 -19 27 6 67 13 21 28 33 38 31 13 -3 16 -16 14 -71z m389 16 c22
-19 23 -46 3 -63 -11 -9 -22 -9 -50 0 -46 15 -55 37 -26 62 29 22 49 23 73 1z
m-162 -290 c11 -25 18 -48 16 -51 -7 -6 -119 71 -124 86 -2 8 10 12 42 12 44
0 46 -1 66 -47z m360 -71 c0 -9 -10 -12 -27 -10 -29 3 -41 32 -28 66 5 13 10
11 30 -13 13 -17 24 -36 25 -43z"/>
<path d="M10140 7450 c-8 -6 -32 -8 -52 -4 -36 5 -37 5 -44 -31 -7 -37 7 -68
20 -46 14 22 26 10 26 -25 0 -42 10 -38 43 19 43 74 46 113 7 87z"/>
<path d="M10009 7194 c-30 -25 -58 -49 -62 -54 -12 -11 10 -87 27 -93 18 -7
31 9 40 46 4 16 25 48 46 71 76 82 38 105 -51 30z"/>
<path d="M9723 7085 c-3 -9 -3 -18 -1 -21 9 -9 38 8 38 22 0 19 -29 18 -37 -1z"/>
<path d="M9563 6984 c-3 -8 0 -21 6 -27 10 -9 16 -8 27 7 8 11 14 23 14 28 0
15 -41 8 -47 -8z"/>
<path d="M6612 3603 c3 -19 30 -28 53 -19 25 9 5 36 -27 36 -23 0 -29 -4 -26
-17z"/>
<path d="M6600 3510 c0 -20 5 -30 15 -30 17 0 18 4 9 38 -9 32 -24 27 -24 -8z"/>
</g>
</svg>
